# Blender 3.4.1
# www.blender.org
mtllib slope-1.mtl
o slope-1
v 0.869280 0.000000 0.494320
v 0.006546 0.000000 0.999979
v -0.862734 0.000000 0.505658
v -0.869280 0.000000 -0.494320
v -0.006546 0.000000 -0.999979
v -0.006546 0.500000 -0.999979
v 0.862734 0.000000 -0.505658
v 0.862734 0.500000 -0.505658
v 0.434640 0.252002 0.247160
v -0.434640 0.252002 -0.247160
vn -0.1354 0.9608 0.2420
vn 0.4943 -0.0000 -0.8693
vn -0.0000 -1.0000 -0.0000
vn -0.5057 -0.0000 -0.8627
vn 0.2566 0.8652 0.4309
vn 1.0000 -0.0000 -0.0065
vn -0.5015 0.8652 -0.0002
vn -0.1381 0.9602 0.2429
vn -0.8693 -0.0000 -0.4943
vn -0.1361 0.9614 0.2393
vn 0.2543 0.8643 0.4339
vn -0.5030 0.8643 0.0033
vt 0.750000 0.490000
vt -0.000000 0.500000
vt 0.957846 0.370000
vt 0.833333 0.500000
vt 0.957846 0.130000
vt 0.666667 0.500000
vt 0.750000 0.010000
vt 0.500000 0.500000
vt 0.333333 0.500000
vt 0.542154 0.130000
vt 0.333333 1.000000
vt 0.166667 0.500000
vt 0.542154 0.370000
vt 0.166667 1.000000
vt -0.000000 0.752002
vt 1.000000 0.752002
vt 0.500000 0.752002
s 0
f 10/17/1 2/4/1 8/14/1
f 6/11/2 7/12/2 5/9/2
f 2/3/3 4/7/3 7/13/3
f 4/8/4 6/11/4 5/9/4
f 9/16/5 1/2/5 8/14/5
f 7/12/6 8/14/6 1/2/6
f 4/8/7 10/17/7 6/11/7
f 10/17/8 3/5/8 2/4/8
f 2/4/9 9/15/9 8/14/9
f 8/14/10 6/11/10 10/17/10
f 6/11/2 8/14/2 7/12/2
f 7/13/3 1/1/3 2/3/3
f 2/3/3 3/5/3 4/7/3
f 4/7/3 5/10/3 7/13/3
f 9/16/11 2/4/11 1/2/11
f 4/8/12 3/6/12 10/17/12
