# Blender 3.4.1
# www.blender.org
mtllib slope-1.mtl
o slope-1
v 0.000000 0.000000 -0.500000
v 0.433013 0.000000 -0.250000
v 0.433013 0.000000 0.250000
v 0.000000 0.000000 0.500000
v -0.433013 0.000000 0.250000
v -0.433013 0.500000 0.250000
v -0.433013 0.000000 -0.250000
v -0.433013 0.500000 -0.250000
v 0.000000 0.252002 -0.250000
v 0.000000 0.252002 0.250000
vn 0.5000 0.8660 -0.0035
vn -1.0000 -0.0000 -0.0000
vn -0.0000 -1.0000 -0.0000
vn -0.5000 -0.0000 0.8660
vn 0.3741 0.6531 -0.6584
vn -0.5000 -0.0000 -0.8660
vn 0.3741 0.6531 0.6584
vn 0.5030 0.8643 -0.0000
vn -0.0000 -0.0000 1.0000
vn 0.4970 0.8678 -0.0000
vn 0.3793 0.6517 -0.6569
vn 0.3793 0.6517 0.6569
vt 0.750000 0.490000
vt -0.000000 0.500000
vt 0.957846 0.370000
vt 0.833333 0.500000
vt 0.957846 0.130000
vt 0.666667 0.500000
vt 0.750000 0.010000
vt 0.500000 0.500000
vt 0.333333 0.500000
vt 0.542154 0.130000
vt 0.333333 1.000000
vt 0.166667 0.500000
vt 0.542154 0.370000
vt 0.166667 1.000000
vt -0.000000 0.752002
vt 1.000000 0.752002
vt 0.500000 0.752002
s 0
f 10/17/1 2/4/1 8/14/1
f 6/11/2 7/12/2 5/9/2
f 2/3/3 4/7/3 7/13/3
f 4/8/4 6/11/4 5/9/4
f 9/16/5 1/2/5 8/14/5
f 7/12/6 8/14/6 1/2/6
f 4/8/7 10/17/7 6/11/7
f 10/17/8 3/5/8 2/4/8
f 2/4/9 9/15/9 8/14/9
f 8/14/10 6/11/10 10/17/10
f 6/11/2 8/14/2 7/12/2
f 7/13/3 1/1/3 2/3/3
f 2/3/3 3/5/3 4/7/3
f 4/7/3 5/10/3 7/13/3
f 9/16/11 2/4/11 1/2/11
f 4/8/12 3/6/12 10/17/12
