# WaveFront *.obj file (generated by Autodesk ATF)

mtllib tile-wall-small.mtl

g tile-wall-small

v 500.000000 250.000000 1000.000000
v -500.000000 250.000000 1000.000000
v -500.000000 250.000000 0.000000
v 500.000000 250.000000 0.000000
v 0.000000 500.000000 0.000000
v 0.000000 500.000000 1000.000000
vt -100.000000 0.000000 0.000000
vt -0.000000 0.000000 0.000000
vt -100.000000 100.000000 0.000000
vt 0.000000 100.000000 0.000000
vt -50.000000 25.000000 0.000000
vt 50.000000 25.000000 0.000000
vt -0.000000 50.000000 0.000000
vt 0.000000 0.000000 0.000000
vt 55.901699 0.000000 0.000000
vt 0.000000 100.000000 0.000000
vt 55.901699 100.000000 0.000000
vt 0.000000 0.000000 0.000000
vt 55.901699 0.000000 0.000000
vt 0.000000 100.000000 0.000000
vt 55.901699 100.000000 0.000000
vt -50.000000 25.000000 0.000000
vt 50.000000 25.000000 0.000000
vt 0.000000 50.000000 0.000000
vn 0.000000 -0.100000 0.000000
vn 0.000000 -0.100000 0.000000
vn 0.000000 -0.100000 0.000000
vn 0.000000 -0.100000 0.000000
vn 0.000000 0.000000 -0.100000
vn 0.000000 0.000000 -0.100000
vn 0.000000 0.000000 -0.100000
vn -0.044721 0.089443 0.000000
vn -0.044721 0.089443 0.000000
vn -0.044721 0.089443 0.000000
vn -0.044721 0.089443 0.000000
vn 0.044721 0.089443 0.000000
vn 0.044721 0.089443 0.000000
vn 0.044721 0.089443 0.000000
vn 0.044721 0.089443 0.000000
vn 0.000000 0.000000 0.100000
vn 0.000000 0.000000 0.100000
vn 0.000000 0.000000 0.100000
usemtl Steel_-_Satin
f 1/1/1 2/2/2 4/3/3
f 4/3/3 2/2/2 3/4/4
f 4/5/5 3/6/6 5/7/7
f 5/8/8 3/9/9 6/10/10
f 6/10/10 3/9/9 2/11/11
f 4/12/12 5/13/13 1/14/14
f 1/14/14 5/13/13 6/15/15
f 2/16/16 1/17/17 6/18/18
# 6 vertices
# 18 texture params
# 18 normals
# 8 facets

# 1 groups
