# Blender 3.4.1
# www.blender.org
mtllib tile-floor.mtl
o tile-floor
v 5.000000 0.000000 0.000000
v 2.500000 0.000000 5.000000
v 2.500000 -0.500000 5.000000
v 5.000000 -0.500000 0.000000
v 2.500000 0.000000 -5.000000
v 2.500000 -0.500000 -5.000000
v -2.500000 0.000000 -5.000000
v -2.500000 -0.500000 -5.000000
v -5.000000 0.000000 -0.000000
v -5.000000 -0.500000 -0.000000
v -2.500000 0.000000 5.000000
v -2.500000 -0.500000 5.000000
vn 0.8944 -0.0000 0.4472
vn 0.8944 -0.0000 -0.4472
vn -0.0000 -0.0000 -1.0000
vn -0.8944 -0.0000 -0.4472
vn -0.8944 -0.0000 0.4472
vn -0.0000 -0.0000 1.0000
vn -0.0000 -1.0000 -0.0000
vn -0.0000 1.0000 -0.0000
vt 0.000000 0.000000
vt 55.901699 0.000000
vt 0.000000 50.000000
vt 55.901699 0.000000
vt 0.000000 0.000000
vt 50.000000 25.000000
vt 55.901699 5.000000
vt 0.000000 5.000000
vt -50.000000 25.000000
vt 0.000000 5.000000
vt 55.901699 5.000000
vt 0.000000 50.000000
vt 0.000000 0.000000
vt 50.000000 0.000000
vt -50.000000 25.000000
vt 0.000000 5.000000
vt 50.000000 5.000000
vt 50.000000 25.000000
vt 0.000000 0.000000
vt 55.901699 0.000000
vt -50.000000 -25.000000
vt 0.000000 5.000000
vt 55.901699 5.000000
vt 50.000000 -25.000000
vt 0.000000 0.000000
vt 55.901699 -0.000000
vt 0.000000 -50.000000
vt 0.000000 5.000000
vt 55.901699 5.000000
vt 0.000000 -50.000000
vt -0.000000 0.000000
vt 50.000000 0.000000
vt 50.000000 -25.000000
vt 0.000000 5.000000
vt 50.000000 5.000000
vt -50.000000 -25.000000
s 0
usemtl Steel_-_Satin.001
f 1/1/1 2/4/1 4/10/1
f 4/10/1 2/4/1 3/7/1
f 5/13/2 1/2/2 6/16/2
f 6/16/2 1/2/2 4/11/2
f 7/19/3 5/14/3 8/22/3
f 8/22/3 5/14/3 6/17/3
f 9/25/4 7/20/4 10/28/4
f 10/28/4 7/20/4 8/23/4
f 11/31/5 9/26/5 12/34/5
f 12/34/5 9/26/5 10/29/5
f 2/5/6 11/32/6 3/8/6
f 3/8/6 11/32/6 12/35/6
f 12/36/7 10/30/7 3/9/7
f 3/9/7 10/30/7 4/12/7
f 4/12/7 10/30/7 8/24/7
f 4/12/7 8/24/7 6/18/7
f 2/6/8 1/3/8 11/33/8
f 11/33/8 1/3/8 9/27/8
f 9/27/8 1/3/8 5/15/8
f 9/27/8 5/15/8 7/21/8
